<svg xmlns="http://www.w3.org/2000/svg" width="1200" height="630" viewBox="0 0 1200 630" role="img" aria-labelledby="title desc">
  <title id="title">Himadri Mishra portfolio social preview</title>
  <desc id="desc">Senior AI engineer building production agentic systems, evals, observability, and ML infrastructure.</desc>
  <defs>
    <radialGradient id="blue" cx="20%" cy="0%" r="80%">
      <stop offset="0%" stop-color="#1d4ed8" stop-opacity="0.55"/>
      <stop offset="55%" stop-color="#0f172a" stop-opacity="0.15"/>
      <stop offset="100%" stop-color="#070a0f" stop-opacity="0"/>
    </radialGradient>
    <radialGradient id="violet" cx="85%" cy="10%" r="75%">
      <stop offset="0%" stop-color="#7c3aed" stop-opacity="0.45"/>
      <stop offset="65%" stop-color="#111827" stop-opacity="0.12"/>
      <stop offset="100%" stop-color="#070a0f" stop-opacity="0"/>
    </radialGradient>
    <linearGradient id="card" x1="0" x2="1" y1="0" y2="1">
      <stop offset="0%" stop-color="#111827" stop-opacity="0.98"/>
      <stop offset="100%" stop-color="#0d1117" stop-opacity="0.98"/>
    </linearGradient>
  </defs>
  <rect width="1200" height="630" fill="#070a0f"/>
  <rect width="1200" height="630" fill="url(#blue)"/>
  <rect width="1200" height="630" fill="url(#violet)"/>
  <g opacity="0.38" stroke="#60a5fa" stroke-width="1">
    <path d="M80 500 C220 430 310 555 450 482 S690 420 820 490 1040 520 1120 450" fill="none"/>
    <path d="M120 150 C260 210 380 120 520 170 S750 250 900 160 1050 135 1140 210" fill="none"/>
  </g>
  <g transform="translate(72 68)">
    <rect x="0" y="0" width="1056" height="494" rx="34" fill="url(#card)" stroke="rgba(255,255,255,0.12)"/>
    <text x="54" y="84" fill="#60a5fa" font-family="JetBrains Mono, monospace" font-size="25" letter-spacing="4">EVIDENCE-FIRST PORTFOLIO</text>
    <text x="54" y="176" fill="#f8fafc" font-family="Inter, Arial, sans-serif" font-size="76" font-weight="800">Himadri Mishra</text>
    <text x="54" y="242" fill="#cbd5e1" font-family="Inter, Arial, sans-serif" font-size="34">Senior AI Engineer building production agentic systems.</text>
    <g transform="translate(54 308)">
      <rect width="292" height="64" rx="18" fill="rgba(96,165,250,0.12)" stroke="rgba(96,165,250,0.32)"/>
      <text x="24" y="40" fill="#f8fafc" font-family="Inter, Arial, sans-serif" font-size="24" font-weight="700">LLM orchestration</text>
      <rect x="316" width="184" height="64" rx="18" fill="rgba(52,211,153,0.10)" stroke="rgba(52,211,153,0.28)"/>
      <text x="340" y="40" fill="#f8fafc" font-family="Inter, Arial, sans-serif" font-size="24" font-weight="700">Evals</text>
      <rect x="524" width="250" height="64" rx="18" fill="rgba(167,139,250,0.12)" stroke="rgba(167,139,250,0.32)"/>
      <text x="548" y="40" fill="#f8fafc" font-family="Inter, Arial, sans-serif" font-size="24" font-weight="700">Observability</text>
    </g>
    <g transform="translate(54 418)">
      <circle cx="12" cy="12" r="8" fill="#7dd3a8"/>
      <text x="34" y="20" fill="#8a97aa" font-family="JetBrains Mono, monospace" font-size="20">verified traces, cost-aware systems, artifact boundaries</text>
    </g>
  </g>
</svg>
